<svg xmlns="http://www.w3.org/2000/svg" viewBox="0 0 480.0912 80.8559"><title>les-ambassadeurs-kyrenia-hotel</title><path d="M78.5146,488.2327c0,6.223,0,9.579,1.021,10.454,0.826,0.729,2.091,1.069,5.882,1.069,2.577,0,4.473-.048,5.689-1.362a6.0977,6.0977,0,0,0,1.264-2.917c0.048-.436.146-0.728,0.535-0.728,0.34,0,.389.242,0.389,0.826a38.2318,38.2318,0,0,1-.73,5.591c-0.291,1.069-.534,1.313-3.062,1.313-3.501,0-6.029-.098-8.217-0.145-2.188-.099-3.938-0.147-5.932-0.147-0.534,0-1.605,0-2.771.048-1.118,0-2.382.099-3.355,0.099-0.631,0-.972-0.147-0.972-0.488,0-.242.195-0.388,0.778-0.388a8.0085,8.0085,0,0,0,1.75-.194c0.972-.194,1.215-1.265,1.41-2.676,0.243-2.042.243-5.882,0.243-10.355v-8.557c0-7.39,0-8.752-.097-10.307-0.097-1.653-.487-2.431-2.091-2.772a7.36,7.36,0,0,0-1.605-.145c-0.534,0-.825-0.097-0.825-0.437s0.34-.439,1.069-0.439c2.286,0,5.348.146,6.661,0.146,1.167,0,4.716-.146,6.612-0.146,0.681,0,1.021.098,1.021,0.439s-0.292.437-.875,0.437a13.2463,13.2463,0,0,0-1.896.145c-1.313.244-1.702,1.07-1.799,2.772-0.097,1.555-.097,2.917-0.097,10.307v8.557Z" transform="translate(-66.862 -464.8952)" style="fill:#231f20"/><path d="M100.876,483.0305c0-6.271,0-7.438-.049-8.75a2.03,2.03,0,0,0-1.847-2.237,7.8426,7.8426,0,0,0-1.702-.146c-0.438,0-.729-0.146-0.729-0.438s0.34-.389.972-0.389c2.236,0,4.959.098,6.175,0.098,1.361,0,10.842.048,11.669,0,0.778-.05,1.458-0.197,1.798-0.244a5.0649,5.0649,0,0,1,.681-0.195,0.312,0.312,0,0,1,.292.389,18.4152,18.4152,0,0,0-.341,2.675c-0.048.436-.146,2.237-0.243,2.723a0.7294,0.7294,0,0,1-.486.679c-0.292,0-.341-0.194-0.341-0.535a3.8692,3.8692,0,0,0-.291-1.505c-0.34-.731-0.681-1.314-2.82-1.508-0.729-.098-5.834-0.194-6.709-0.194a0.3147,0.3147,0,0,0-.293.388v10.21c0,0.243.05,0.438,0.293,0.438,0.972,0,6.514,0,7.487-.098a3.3629,3.3629,0,0,0,2.042-.632,1.7088,1.7088,0,0,1,.681-0.535,0.3938,0.3938,0,0,1,.34.439c0,0.242-.097.923-0.34,3.013-0.097.827-.195,2.481-0.195,2.771,0,0.341-.048.926-0.437,0.926a0.3238,0.3238,0,0,1-.389-0.341c-0.05-.439-0.05-0.974-0.147-1.508-0.242-.827-0.778-1.458-2.382-1.603-0.777-.099-5.639-0.195-6.709-0.195-0.194,0-.244.195-0.244,0.437v3.305c0,1.41-.048,4.913,0,6.127,0.097,2.82,1.411,3.453,5.786,3.453a11.58,11.58,0,0,0,4.036-.535c1.069-.487,1.556-1.362,1.847-3.064,0.098-.439.196-0.632,0.487-0.632,0.34,0,.388.534,0.388,0.973a27.8664,27.8664,0,0,1-.583,4.569c-0.292,1.069-.68,1.069-2.285,1.069-3.209,0-5.786-.047-7.876-0.144-2.091-.05-3.696-0.098-4.959-0.098-0.487,0-1.411.048-2.431,0.048-1.021.05-2.091,0.099-2.966,0.099-0.535,0-.826-0.147-0.826-0.44,0-.193.145-0.436,0.68-0.436a6.2491,6.2491,0,0,0,1.507-.146c0.875-.194,1.119-0.973,1.265-2.188,0.194-1.75.194-5.008,0.194-8.801v-7.292Z" transform="translate(-66.862 -464.8952)" style="fill:#231f20"/><path d="M126.543,501.7981a1.1455,1.1455,0,0,1-.827-1.409c0-2.237.195-4.815,0.243-5.495,0-.633.195-1.07,0.535-1.07,0.389,0,.437.389,0.437,0.682a7.6663,7.6663,0,0,0,.39,2.138c0.924,3.063,4.133,4.085,6.806,4.085,3.695,0,5.932-2.335,5.932-5.252,0-1.798-.438-3.599-4.23-5.835l-2.479-1.458c-5.057-2.965-6.71-5.737-6.71-9.383,0-5.058,4.861-8.314,10.794-8.314a25.3586,25.3586,0,0,1,6.077.681,0.5806,0.5806,0,0,1,.583.535c0,0.534-.146,1.702-0.146,4.957,0,0.875-.194,1.315-0.534,1.315q-0.438,0-.438-0.73a4.6584,4.6584,0,0,0-1.119-2.722,5.7387,5.7387,0,0,0-4.764-1.945c-3.063,0-5.834,1.604-5.834,4.423,0,1.849.68,3.306,4.522,5.446l1.75,0.972c5.639,3.111,7.39,6.273,7.39,10.016,0,3.063-1.167,5.542-4.279,7.73-2.041,1.46-4.861,1.702-7.147,1.702a18.1742,18.1742,0,0,1-6.952-1.069" transform="translate(-66.862 -464.8952)" style="fill:#231f20"/><path d="M172.6289,489.9342a0.4189,0.4189,0,0,0-.438.388l-2.626,6.662a9.4716,9.4716,0,0,0-.729,2.966c0,0.875.438,1.507,1.944,1.507h0.73c0.584,0,.729.097,0.729,0.389,0,0.388-.291.487-0.826,0.487-1.555,0-3.646-.146-5.154-0.146-0.534,0-3.209.146-5.736,0.146-0.633,0-.925-0.099-0.925-0.487,0-.292.195-0.389,0.584-0.389a14.3294,14.3294,0,0,0,1.507-.098c2.236-.29,3.161-1.944,4.133-4.375l12.203-30.143c0.583-1.411.875-1.946,1.361-1.946,0.438,0,.729.438,1.216,1.556,1.167,2.675,8.946,22.121,12.058,29.512,1.847,4.375,3.257,5.056,4.278,5.301a10.7278,10.7278,0,0,0,2.043.193c0.388,0,.631.049,0.631,0.389,0,0.388-.438.487-2.236,0.487-1.75,0-5.3,0-9.189-.099-0.875-.047-1.459-0.047-1.459-0.388,0-.292.194-0.389,0.681-0.437a0.7933,0.7933,0,0,0,.437-1.119l-3.889-10.016a0.47,0.47,0,0,0-.487-0.34h-10.841Zm9.917-2.431c0.244,0,.292-0.146.244-0.292l-4.376-11.96a0.4837,0.4837,0,0,0-.243-0.436,0.5123,0.5123,0,0,0-.292.436l-4.473,11.912c-0.048.194,0,.34,0.195,0.34h8.945Z" transform="translate(-66.862 -464.8952)" style="fill:#231f20"/><path d="M206.3179,471.41a1.0756,1.0756,0,0,1,.826-1.069c0.437,0,.73.194,1.312,1.311l11.475,22.854,11.474-23.144a1.4733,1.4733,0,0,1,1.119-1.021,1.3619,1.3619,0,0,1,.972,1.311l3.889,25.428c0.39,2.577.778,3.696,2.091,4.085a8.4285,8.4285,0,0,0,2.43.389,0.5663,0.5663,0,0,1,.681.39c0,0.34-.485.485-1.118,0.485-1.069,0-7.147-.145-8.848-0.243-1.022-.047-1.265-0.242-1.265-0.486a0.5675,0.5675,0,0,1,.487-0.436c0.243-.099.34-0.585,0.194-1.75l-2.382-17.846h-0.146L220.32,499.95c-0.973,1.943-1.215,2.334-1.702,2.334-0.534,0-1.021-.827-1.702-2.092-1.021-1.894-4.424-8.216-4.911-9.383-0.34-.777-2.868-5.785-4.277-8.654h-0.147l-2.041,15.946a13.5324,13.5324,0,0,0-.146,1.947,1.2925,1.2925,0,0,0,1.312,1.216,7.4371,7.4371,0,0,0,1.508.193,0.6092,0.6092,0,0,1,.68.389c0,0.388-.388.487-1.02,0.487-1.799,0-3.744-.147-4.522-0.147-0.826,0-2.869.147-4.23,0.147-0.438,0-.779-0.099-0.779-0.487a0.5751,0.5751,0,0,1,.682-0.389,7.6776,7.6776,0,0,0,1.312-.098c1.168-.146,1.556-1.798,1.751-3.159Z" transform="translate(-66.862 -464.8952)" style="fill:#231f20"/><path d="M249.5835,483.0305c0-6.271,0-7.438-.049-8.75a2.03,2.03,0,0,0-1.847-2.237,7.8465,7.8465,0,0,0-1.703-.146c-0.437,0-.728-0.146-0.728-0.438s0.34-.389.972-0.389c2.236,0,4.959.098,5.786,0.098,2.139,0,4.958-.098,6.417-0.098,7.731,0,9.093,3.986,9.093,6.175,0,3.208-2.383,5.688-4.814,7.244,3.5,1.118,7.876,4.083,7.876,8.945,0,4.425-3.5,8.994-11.377,8.994-0.485,0-1.944-.047-3.403-0.144-1.459-.05-2.966-0.098-3.646-0.098-0.487,0-1.411.048-2.431,0.048-1.021.05-2.091,0.099-2.966,0.099-0.535,0-.826-0.147-0.826-0.44,0-.193.145-0.436,0.68-0.436a6.2507,6.2507,0,0,0,1.507-.146c0.875-.194,1.118-0.973,1.265-2.188,0.194-1.75.194-5.008,0.194-8.801v-7.292Zm5.542,0.681a0.368,0.368,0,0,0,.292.438,9.2279,9.2279,0,0,0,1.994.145,5.5449,5.5449,0,0,0,3.354-.73,5.4193,5.4193,0,0,0,1.945-4.375c0-2.771-1.653-6.223-5.348-6.223a10.7785,10.7785,0,0,0-1.847.098c-0.293.048-.39,0.242-0.39,0.679v9.968Zm0,12.154c0,2.723.146,3.55,1.508,4.085a7.882,7.882,0,0,0,3.063.486c2.284,0,5.251-1.263,5.251-5.835a9.0512,9.0512,0,0,0-4.036-7.34,6.067,6.067,0,0,0-3.695-1.072h-1.847c-0.147,0-.244.051-0.244,0.293v9.383Z" transform="translate(-66.862 -464.8952)" style="fill:#231f20"/><path d="M282.7848,491.8781a0.3331,0.3331,0,0,0-.388.293l-2.286,5.59a7.5075,7.5075,0,0,0-.632,2.529c0,0.729.39,1.167,1.702,1.167h0.632c0.535,0,.632.195,0.632,0.437,0,0.341-.243.439-0.68,0.439-1.411,0-3.404-.146-4.766-0.146-0.437,0-2.722.146-4.958,0.146-0.535,0-.778-0.098-0.778-0.439a0.4235,0.4235,0,0,1,.486-0.437c0.389,0,.875-0.048,1.264-0.048,1.945-.292,2.674-1.557,3.549-3.648l11.183-25.815c0.486-1.168.826-1.653,1.264-1.653,0.632,0,.826.389,1.264,1.312,1.021,2.285,8.169,19.01,10.89,25.281,1.654,3.745,2.869,4.279,3.647,4.426a10.3239,10.3239,0,0,0,1.604.145c0.389,0,.583.147,0.583,0.437,0,0.341-.242.439-1.846,0.439-1.507,0-4.62,0-8.217-.098-0.778-.048-1.265-0.048-1.265-0.341,0-.242.098-0.388,0.536-0.437a0.65,0.65,0,0,0,.388-0.925l-3.306-8.361a0.408,0.408,0,0,0-.437-0.293h-10.065Zm9.141-2.284c0.194,0,.243-0.096.194-0.242l-4.035-10.357a0.5792,0.5792,0,0,0-.195-0.388,0.4628,0.4628,0,0,0-.242.388l-4.133,10.307c-0.097.196,0,.292,0.145,0.292h8.266Z" transform="translate(-66.862 -464.8952)" style="fill:#231f20"/><path d="M308.8428,501.7981a1.1448,1.1448,0,0,1-.827-1.409c0-2.237.195-4.815,0.243-5.495,0-.633.194-1.07,0.534-1.07,0.39,0,.439.389,0.439,0.682a7.6934,7.6934,0,0,0,.388,2.138c0.924,3.063,4.133,4.085,6.807,4.085,3.695,0,5.932-2.335,5.932-5.252,0-1.798-.438-3.599-4.231-5.835l-2.478-1.458c-5.057-2.965-6.71-5.737-6.71-9.383,0-5.058,4.861-8.314,10.794-8.314a25.3658,25.3658,0,0,1,6.077.681,0.5814,0.5814,0,0,1,.583.535c0,0.534-.146,1.702-0.146,4.957,0,0.875-.194,1.315-0.535,1.315q-0.4365,0-.437-0.73a4.6656,4.6656,0,0,0-1.119-2.722,5.7387,5.7387,0,0,0-4.764-1.945c-3.063,0-5.834,1.604-5.834,4.423,0,1.849.68,3.306,4.521,5.446l1.75,0.972c5.64,3.111,7.391,6.273,7.391,10.016,0,3.063-1.167,5.542-4.279,7.73-2.042,1.46-4.862,1.702-7.147,1.702a18.1742,18.1742,0,0,1-6.952-1.069" transform="translate(-66.862 -464.8952)" style="fill:#231f20"/><path d="M335.0928,501.7981a1.1455,1.1455,0,0,1-.827-1.409c0-2.237.195-4.815,0.244-5.495,0-.633.193-1.07,0.534-1.07,0.39,0,.439.389,0.439,0.682a7.6923,7.6923,0,0,0,.388,2.138c0.924,3.063,4.133,4.085,6.807,4.085,3.695,0,5.931-2.335,5.931-5.252,0-1.798-.438-3.599-4.23-5.835l-2.478-1.458c-5.058-2.965-6.71-5.737-6.71-9.383,0-5.058,4.861-8.314,10.793-8.314a25.3516,25.3516,0,0,1,6.077.681,0.5816,0.5816,0,0,1,.584.535c0,0.534-.147,1.702-0.147,4.957,0,0.875-.194,1.315-0.534,1.315-0.292,0-.437-0.243-0.437-0.73a4.6655,4.6655,0,0,0-1.119-2.722,5.74,5.74,0,0,0-4.764-1.945c-3.063,0-5.834,1.604-5.834,4.423,0,1.849.679,3.306,4.521,5.446l1.75,0.972c5.64,3.111,7.391,6.273,7.391,10.016,0,3.063-1.168,5.542-4.279,7.73-2.042,1.46-4.862,1.702-7.148,1.702a18.1806,18.1806,0,0,1-6.952-1.069" transform="translate(-66.862 -464.8952)" style="fill:#231f20"/><path d="M365.525,491.8781a0.3331,0.3331,0,0,0-.388.293l-2.285,5.59a7.4834,7.4834,0,0,0-.632,2.529c0,0.729.389,1.167,1.702,1.167h0.632c0.534,0,.632.195,0.632,0.437,0,0.341-.244.439-0.681,0.439-1.41,0-3.403-.146-4.766-0.146-0.437,0-2.721.146-4.958,0.146-0.535,0-.778-0.098-0.778-0.439a0.4235,0.4235,0,0,1,.486-0.437c0.389,0,.875-0.048,1.264-0.048,1.945-.292,2.674-1.557,3.549-3.648l11.183-25.815c0.486-1.168.827-1.653,1.264-1.653,0.633,0,.827.389,1.265,1.312,1.02,2.285,8.168,19.01,10.889,25.281,1.654,3.745,2.869,4.279,3.646,4.426a10.3574,10.3574,0,0,0,1.606.145c0.389,0,.582.147,0.582,0.437,0,0.341-.242.439-1.847,0.439-1.506,0-4.618,0-8.216-.098-0.778-.048-1.265-0.048-1.265-0.341,0-.242.099-0.388,0.536-0.437a0.6509,0.6509,0,0,0,.389-0.925l-3.307-8.361a0.4074,0.4074,0,0,0-.437-0.293H365.525Zm9.141-2.284c0.194,0,.243-0.096.194-0.242l-4.035-10.357a0.5834,0.5834,0,0,0-.194-0.388,0.4635,0.4635,0,0,0-.243.388l-4.133,10.307c-0.097.196,0,.292,0.145,0.292h8.266Z" transform="translate(-66.862 -464.8952)" style="fill:#231f20"/><path d="M394.4017,483.0308c0-6.272,0-7.439-.05-8.75a2.03,2.03,0,0,0-1.847-2.238,7.91,7.91,0,0,0-1.702-.145c-0.438,0-.728-0.147-0.728-0.439s0.339-.388.97-0.388c2.238,0,4.96.097,6.176,0.097,1.313,0,4.377-.097,6.954-0.097,5.346,0,12.542,0,17.21,4.715a14.48,14.48,0,0,1,4.034,10.503,16.0281,16.0281,0,0,1-4.667,11.523c-1.944,1.944-6.466,4.861-14.343,4.861-1.555,0-3.402-.146-5.103-0.244-1.702-.144-3.258-0.242-4.327-0.242-0.487,0-1.41.048-2.432,0.048-1.02.05-2.09,0.098-2.967,0.098-0.535,0-.825-0.146-0.825-0.439,0-.193.147-0.437,0.681-0.437a6.26,6.26,0,0,0,1.506-.145c0.875-.194,1.119-0.974,1.265-2.189,0.195-1.75.195-5.007,0.195-8.8v-7.292Zm5.736,4.571c0,4.375.048,7.534,0.099,8.361a7.4975,7.4975,0,0,0,.486,2.918c0.534,0.777,2.236,1.652,5.591,1.652,3.887,0,6.758-.681,9.334-2.82,2.771-2.284,3.646-5.978,3.646-10.257,0-5.252-2.09-8.655-3.986-10.308-3.939-3.5-8.607-3.939-11.96-3.939a9.0844,9.0844,0,0,0-2.625.292,0.727,0.727,0,0,0-.537.828c-0.048,1.409-.048,4.813-0.048,8.071v5.202Z" transform="translate(-66.862 -464.8952)" style="fill:#231f20"/><path d="M434.3115,483.0305c0-6.271,0-7.438-.048-8.75a2.0288,2.0288,0,0,0-1.846-2.237,7.8426,7.8426,0,0,0-1.702-.146c-0.438,0-.731-0.146-0.731-0.438s0.341-.389.973-0.389c2.237,0,4.96.098,6.175,0.098,1.362,0,10.843.048,11.668,0,0.779-.05,1.46-0.197,1.8-0.244a5.0246,5.0246,0,0,1,.681-0.195,0.3119,0.3119,0,0,1,.291.389,18.4131,18.4131,0,0,0-.341,2.675c-0.048.436-.145,2.237-0.242,2.723a0.7289,0.7289,0,0,1-.487.679c-0.293,0-.34-0.194-0.34-0.535a3.8546,3.8546,0,0,0-.292-1.505c-0.339-.731-0.679-1.314-2.82-1.508-0.729-.098-5.835-0.194-6.71-0.194a0.3139,0.3139,0,0,0-.29.388v10.21c0,0.243.048,0.438,0.29,0.438,0.973,0,6.516,0,7.489-.098a3.36,3.36,0,0,0,2.041-.632,1.7079,1.7079,0,0,1,.68-0.535,0.3918,0.3918,0,0,1,.34.439c0,0.242-.096.923-0.34,3.013-0.096.827-.194,2.481-0.194,2.771,0,0.341-.048.926-0.437,0.926a0.3234,0.3234,0,0,1-.388-0.341c-0.05-.439-0.05-0.974-0.146-1.508-0.245-.827-0.779-1.458-2.383-1.603-0.779-.099-5.64-0.195-6.71-0.195-0.194,0-.242.195-0.242,0.437v3.305c0,1.41-.051,4.913,0,6.127,0.096,2.82,1.409,3.453,5.784,3.453a11.574,11.574,0,0,0,4.036-.535c1.071-.487,1.557-1.362,1.847-3.064,0.099-.439.195-0.632,0.487-0.632,0.34,0,.388.534,0.388,0.973a28.0839,28.0839,0,0,1-.582,4.569c-0.293,1.069-.681,1.069-2.285,1.069-3.21,0-5.787-.047-7.877-0.144-2.091-.05-3.694-0.098-4.96-0.098-0.484,0-1.409.048-2.431,0.048-1.021.05-2.09,0.099-2.965,0.099-0.535,0-.827-0.147-0.827-0.44,0-.193.146-0.436,0.681-0.436a6.264,6.264,0,0,0,1.508-.146c0.875-.194,1.119-0.973,1.263-2.188,0.194-1.75.194-5.008,0.194-8.801v-7.292Z" transform="translate(-66.862 -464.8952)" style="fill:#231f20"/><path d="M460.4678,483.0305c0-6.271.049-7.438-.048-8.75-0.098-1.46-.486-1.849-1.848-2.237a7.6483,7.6483,0,0,0-1.654-.146c-0.486,0-.728-0.146-0.728-0.438s0.292-.389.923-0.389c2.287,0,5.154.098,6.419,0.098,1.069,0,3.937-.098,5.493-0.098,0.632,0,.924.098,0.924,0.389s-0.244.438-.68,0.438a5.9188,5.9188,0,0,0-1.266.146c-1.117.194-1.458,0.777-1.556,2.237-0.095,1.312-.095,2.479-0.095,8.75v5.786c0,6.029,1.167,8.362,3.257,10.016a8.2372,8.2372,0,0,0,5.396,1.652,8.1489,8.1489,0,0,0,5.737-2.186c2.383-2.237,2.479-5.835,2.479-10.066v-5.202c0-6.271-.048-7.438-0.096-8.75a1.9944,1.9944,0,0,0-1.801-2.237,7.2816,7.2816,0,0,0-1.555-.146c-0.485,0-.729-0.146-0.729-0.438s0.292-.389.875-0.389c2.189,0,5.058.098,5.106,0.098,0.487,0,3.354-.098,5.008-0.098,0.583,0,.875.098,0.875,0.389s-0.245.438-.729,0.438a5.9185,5.9185,0,0,0-1.266.146c-1.165.194-1.457,0.777-1.555,2.237-0.048,1.312-.096,2.479-0.096,8.75v4.425c0,4.619-.487,9.481-4.085,12.446a13.3394,13.3394,0,0,1-9.043,2.966c-2.236,0-6.661-.098-9.773-2.819-2.187-1.897-3.889-4.96-3.889-10.941v-6.077Z" transform="translate(-66.862 -464.8952)" style="fill:#231f20"/><path d="M498.29,483.0305c0-6.271,0-7.438-.05-8.75a2.0287,2.0287,0,0,0-1.846-2.237,7.8488,7.8488,0,0,0-1.702-.146c-0.438,0-.731-0.146-0.731-0.438s0.34-.389.973-0.389c2.237,0,4.96.098,5.835,0.098,1.457,0,5.348-.098,6.659-0.098,2.724,0,5.835.242,8.12,1.75a7.2243,7.2243,0,0,1,3.016,5.689c0,3.063-1.751,5.785-5.934,9.14,3.793,4.667,6.809,8.412,9.385,10.987,2.383,2.382,3.889,2.577,4.57,2.723a3.9691,3.9691,0,0,0,1.021.098,0.4958,0.4958,0,0,1,.535.436c0,0.341-.293.44-0.827,0.44h-4.083a9.2806,9.2806,0,0,1-4.667-.827c-1.849-.924-3.452-2.87-5.835-6.078-1.702-2.237-3.5-5.007-4.035-5.64a0.9883,0.9883,0,0,0-.778-0.29l-3.841-.099a0.3084,0.3084,0,0,0-.341.341v0.582c0,3.843.049,7.051,0.242,8.801,0.147,1.215.341,1.994,1.654,2.188a16.101,16.101,0,0,0,2.091.146,0.4955,0.4955,0,0,1,.534.436c0,0.293-.339.44-0.875,0.44-2.478,0-6.029-.147-6.66-0.147-0.826,0-3.549.147-5.252,0.147-0.534,0-.827-0.147-0.827-0.44,0-.193.147-0.436,0.682-0.436a6.26,6.26,0,0,0,1.508-.146c0.875-.194,1.119-0.973,1.262-2.188,0.197-1.75.197-5.008,0.197-8.801v-7.292Zm5.444,3.21a0.6483,0.6483,0,0,0,.389.729,11.7272,11.7272,0,0,0,3.257.388c1.703,0,2.286-.146,3.016-0.68,1.312-.924,2.772-2.722,2.772-6.126,0-5.834-3.99-7.342-6.516-7.342a15.801,15.801,0,0,0-2.529.145,0.5079,0.5079,0,0,0-.389.585v12.301Z" transform="translate(-66.862 -464.8952)" style="fill:#231f20"/><path d="M528.5752,501.7981a1.145,1.145,0,0,1-.826-1.409c0-2.237.194-4.815,0.244-5.495,0-.633.194-1.07,0.534-1.07,0.389,0,.437.389,0.437,0.682a7.6658,7.6658,0,0,0,.39,2.138c0.923,3.063,4.131,4.085,6.806,4.085,3.694,0,5.932-2.335,5.932-5.252,0-1.798-.437-3.599-4.23-5.835l-2.48-1.458c-5.056-2.965-6.7079-5.737-6.7079-9.383,0-5.058,4.861-8.314,10.793-8.314a25.3412,25.3412,0,0,1,6.076.681,0.5835,0.5835,0,0,1,.585.535c0,0.534-.146,1.702-0.146,4.957,0,0.875-.194,1.315-0.535,1.315q-0.438,0-.438-0.73a4.6693,4.6693,0,0,0-1.118-2.722,5.7428,5.7428,0,0,0-4.765-1.945c-3.064,0-5.835,1.604-5.835,4.423,0,1.849.68,3.306,4.5211,5.446l1.752,0.972c5.639,3.111,7.389,6.273,7.389,10.016,0,3.063-1.165,5.542-4.277,7.73-2.042,1.46-4.864,1.702-7.149,1.702a18.1837,18.1837,0,0,1-6.952-1.069" transform="translate(-66.862 -464.8952)" style="fill:#231f20"/><rect y="74.1798" width="81.522" height="2.131" style="fill:#97694e"/><rect x="396.486" y="74.1798" width="81.521" height="2.131" style="fill:#97694e"/><path d="M388.8281,542.6125c0.087,0.789.24,2.019,1.186,2.327a4.7883,4.7883,0,0,0,1.426.196c0.11,0,.176.023,0.176,0.111,0,0.132-.198.198-0.461,0.198-0.483,0-2.854-.066-3.667-0.133-0.505-.043-0.614-0.109-0.614-0.219a0.1483,0.1483,0,0,1,.153-0.153,1.0069,1.0069,0,0,0,.087-0.791L386.06,532.82h-0.065l-5.378,11.417c-0.462.966-.528,1.164-0.725,1.164-0.155,0-.264-0.22-0.68-1.01-0.572-1.076-2.459-4.875-2.57-5.093-0.198-.396-2.657-5.665-2.898-6.258h-0.088l-0.878,10.187c-0.022.351-.022,0.746-0.022,1.119a0.7033,0.7033,0,0,0,.571.681,4.01,4.01,0,0,0,.834.109,0.1576,0.1576,0,0,1,.176.111c0,0.154-.132.198-0.395,0.198-0.813,0-1.867-.066-2.043-0.066-0.197,0-1.251.066-1.843,0.066-0.22,0-.374-0.044-0.374-0.198a0.2,0.2,0,0,1,.219-0.111,2.8968,2.8968,0,0,0,.659-0.064c0.725-.132.79-0.989,0.879-1.823l1.58-14.315c0.023-.242.11-0.395,0.242-0.395a0.4048,0.4048,0,0,1,.33.329l6.717,13.809,6.456-13.787a0.4444,0.4444,0,0,1,.33-0.351c0.153,0,.218.176,0.262,0.594Z" transform="translate(-66.862 -464.8952)" style="fill:#231f20"/><path d="M397.9437,531.7009c0.242-.616.329-0.725,0.461-0.725a0.924,0.924,0,0,1,.461.68c0.351,0.791,3.447,8.497,4.632,11.33,0.702,1.668,1.23,1.91,1.647,2.041a2.6718,2.6718,0,0,0,.768.109,0.2087,0.2087,0,0,1,.242.155,0.4164,0.4164,0,0,1-.439.154c-0.286,0-1.713,0-3.052-.044a0.9176,0.9176,0,0,1-.68-0.132c0-.088.044-0.088,0.131-0.133a0.35,0.35,0,0,0,.175-0.505l-1.734-4.28a0.1515,0.1515,0,0,0-.176-0.11h-4.457a0.2022,0.2022,0,0,0-.196.153l-1.099,2.986a3.8572,3.8572,0,0,0-.286,1.251,0.5557,0.5557,0,0,0,.66.505h0.175c0.154,0,.198.066,0.198,0.155,0,0.11-.11.154-0.286,0.154-0.461,0-1.515-.067-1.734-0.067-0.197,0-1.163.067-1.954,0.067-0.242,0-.373-0.044-0.373-0.154a0.17,0.17,0,0,1,.174-0.155,5.4035,5.4035,0,0,0,.572-0.043c0.879-.11,1.252-0.768,1.625-1.713Zm2.151,7.772c0.088,0,.088-0.045.065-0.133l-1.91-5.116q-0.1635-.426-0.329,0l-1.8,5.116c-0.022.088,0,.133,0.066,0.133h3.908Z" transform="translate(-66.862 -464.8952)" style="fill:#231f20"/><path d="M408.1777,536.7278c0-2.898,0-3.425-.044-4.018a0.85,0.85,0,0,0-.791-1.032,6.1721,6.1721,0,0,0-.658-0.044,0.1847,0.1847,0,0,1-.153-0.153c0-.11.086-0.154,0.306-0.154,0.878,0,2.174.044,2.283,0.044,0.199,0,1.824-.044,2.415-0.044a6.3251,6.3251,0,0,1,3.602.812,3.2751,3.2751,0,0,1,1.339,2.547c0,1.383-.57,2.723-2.371,4.26,1.581,1.975,2.92,3.667,4.04,4.83a3.547,3.547,0,0,0,2.151,1.296,3.6463,3.6463,0,0,0,.681.064,0.172,0.172,0,0,1,.176.155c0,0.11-.111.154-0.462,0.154h-1.207a3.9111,3.9111,0,0,1-2.064-.373,9.9218,9.9218,0,0,1-2.635-2.745c-0.812-1.01-1.668-2.218-2.086-2.723a0.2922,0.2922,0,0,0-.263-0.11l-2.459-.043a0.1237,0.1237,0,0,0-.132.153v0.438c0,1.801,0,3.25.089,4.019a0.8774,0.8774,0,0,0,.767.988,7.0553,7.0553,0,0,0,.857.087,0.1381,0.1381,0,0,1,.154.155c0,0.087-.089.154-0.308,0.154-1.054,0-2.284-.067-2.371-0.067-0.022,0-1.318.067-1.91,0.067-0.198,0-.308-0.044-0.308-0.154a0.1508,0.1508,0,0,1,.154-0.155,2.7507,2.7507,0,0,0,.593-0.087,0.9457,0.9457,0,0,0,.505-0.988,38.0247,38.0247,0,0,0,.11-4.039v-3.294Zm1.668,1.58a0.276,0.276,0,0,0,.132.242,6.542,6.542,0,0,0,2.13.285,2.51,2.51,0,0,0,1.449-.329,3.3308,3.3308,0,0,0,1.163-2.854c0-2.326-1.272-3.667-3.337-3.667a8.2991,8.2991,0,0,0-1.384.111,0.2374,0.2374,0,0,0-.153.219v5.993Z" transform="translate(-66.862 -464.8952)" style="fill:#231f20"/><path d="M424.1631,540.0217c0,1.8,0,3.271.088,4.039a0.8479,0.8479,0,0,0,.702.988,7.8019,7.8019,0,0,0,.879.087,0.15,0.15,0,0,1,.153.156c0,0.086-.088.153-0.307,0.153-1.076,0-2.327-.067-2.415-0.067-0.111,0-1.318.067-1.91,0.067-0.198,0-.308-0.044-0.308-0.153a0.15,0.15,0,0,1,.154-0.156,2.7674,2.7674,0,0,0,.593-0.087,0.9179,0.9179,0,0,0,.505-0.988c0.088-.768.11-2.239,0.11-4.039v-3.294c0-2.897,0-3.425-.044-4.018a0.8671,0.8671,0,0,0-.615-1.009,3.3669,3.3669,0,0,0-.593-0.067,0.1642,0.1642,0,0,1-.153-0.153c0-.11.087-0.154,0.307-0.154,0.636,0,1.843.044,1.954,0.044,0.088,0,1.339-.044,1.932-0.044,0.22,0,.307.044,0.307,0.154a0.1859,0.1859,0,0,1-.153.153,2.1525,2.1525,0,0,0-.483.044c-0.527.11-.638,0.373-0.682,1.032-0.021.593-.021,1.121-0.021,4.018v3.294Z" transform="translate(-66.862 -464.8952)" style="fill:#231f20"/><path d="M430.7959,542.8967c0.044,1.537.22,1.999,0.747,2.13a4.5558,4.5558,0,0,0,.965.109,0.15,0.15,0,0,1,.153.156c0,0.109-.131.153-0.35,0.153-1.098,0-1.867-.067-2.042-0.067s-0.988.067-1.866,0.067c-0.198,0-.308-0.023-0.308-0.153a0.1515,0.1515,0,0,1,.154-0.156,3.019,3.019,0,0,0,.79-0.109c0.484-.131.549-0.636,0.549-2.327v-10.693c0-.747.109-0.944,0.264-0.944a1.7508,1.7508,0,0,1,.746.571c0.307,0.308,3.118,3.293,6.103,6.367,1.91,1.977,3.975,4.194,4.568,4.809l-0.199-9.353c-0.02-1.207-.13-1.625-0.723-1.735a6.1847,6.1847,0,0,0-.945-0.088,0.1523,0.1523,0,0,1-.153-0.175c0-.11.153-0.132,0.373-0.132,0.878,0,1.8.044,2.02,0.044s0.856-.044,1.647-0.044c0.197,0,.351.022,0.351,0.132a0.2178,0.2178,0,0,1-.22.175,2.1841,2.1841,0,0,0-.461.044c-0.637.132-.68,0.505-0.68,1.625l-0.045,10.934c0,1.228-.021,1.34-0.153,1.34-0.197,0-.395-0.155-1.472-1.143-0.197-.176-2.985-2.92-5.027-5.05-2.24-2.349-4.413-4.632-5.006-5.291Z" transform="translate(-66.862 -464.8952)" style="fill:#231f20"/><path d="M450.6908,531.7009c0.242-.616.329-0.725,0.461-0.725a0.9242,0.9242,0,0,1,.462.68c0.351,0.791,3.446,8.497,4.631,11.33,0.702,1.668,1.23,1.91,1.648,2.041a2.6629,2.6629,0,0,0,.768.109,0.2076,0.2076,0,0,1,.241.155,0.4164,0.4164,0,0,1-.439.154c-0.286,0-1.713,0-3.052-.044a0.92,0.92,0,0,1-.68-0.132c0-.088.044-0.088,0.132-0.133a0.35,0.35,0,0,0,.175-0.505l-1.734-4.28a0.152,0.152,0,0,0-.176-0.11H448.67a0.2022,0.2022,0,0,0-.196.153l-1.098,2.986a3.8572,3.8572,0,0,0-.286,1.251,0.5552,0.5552,0,0,0,.659.505h0.176c0.153,0,.197.066,0.197,0.155,0,0.11-.11.154-0.286,0.154-0.46,0-1.514-.067-1.734-0.067-0.197,0-1.163.067-1.954,0.067-0.241,0-.373-0.044-0.373-0.154a0.17,0.17,0,0,1,.175-0.155,5.443,5.443,0,0,0,.572-0.043c0.878-.11,1.251-0.768,1.625-1.713Zm2.152,7.772c0.087,0,.087-0.045.065-0.133l-1.91-5.116q-0.1635-.426-0.329,0l-1.801,5.116c-0.022.088,0,.133,0.067,0.133h3.908Z" transform="translate(-66.862 -464.8952)" style="fill:#231f20"/><path d="M357.334,538.4075a2.2685,2.2685,0,1,1-2.269-2.27,2.2692,2.2692,0,0,1,2.269,2.27" transform="translate(-66.862 -464.8952)"/><path d="M242.1138,538.4075a2.269,2.269,0,1,1-2.269-2.27,2.2692,2.2692,0,0,1,2.269,2.27" transform="translate(-66.862 -464.8952)"/><path d="M170.0835,539.0774c0,2.107,0,3.842.111,4.765a1.061,1.061,0,0,0,.856,1.207,9.504,9.504,0,0,0,.988.087,0.1425,0.1425,0,0,1,.175.132c0,0.11-.109.176-0.351,0.176-1.208,0-2.591-.066-2.701-0.066s-1.493.066-2.151,0.066c-0.242,0-.351-0.044-0.351-0.176a0.142,0.142,0,0,1,.175-0.132,3.3839,3.3839,0,0,0,.659-0.087,1.1748,1.1748,0,0,0,.636-1.207c0.11-.923.11-2.658,0.11-4.765v-2.306a0.1262,0.1262,0,0,0-.132-0.132h-9.308a0.1165,0.1165,0,0,0-.133.132v2.306c0,2.107,0,3.842.111,4.765a1.06,1.06,0,0,0,.856,1.207,9.5046,9.5046,0,0,0,.988.087,0.1425,0.1425,0,0,1,.175.132c0,0.11-.109.176-0.351,0.176-1.208,0-2.591-.066-2.7-0.066s-1.494.066-2.152,0.066c-0.242,0-.351-0.044-0.351-0.176a0.1425,0.1425,0,0,1,.175-0.132,3.3839,3.3839,0,0,0,.659-0.087,1.1748,1.1748,0,0,0,.636-1.207c0.111-.923.111-2.658,0.111-4.765v-3.864c0-3.426,0-4.04-.045-4.742a1.0771,1.0771,0,0,0-.944-1.252,4.09,4.09,0,0,0-.746-0.067,0.1521,0.1521,0,0,1-.175-0.132c0-.131.109-0.174,0.351-0.174,0.987,0,2.371.065,2.481,0.065s1.492-.065,2.151-0.065c0.242,0,.351.043,0.351,0.174a0.1525,0.1525,0,0,1-.176.132,3.3076,3.3076,0,0,0-.549.067c-0.592.109-.767,0.482-0.812,1.252-0.044.702-.044,1.316-0.044,4.742v0.461a0.1161,0.1161,0,0,0,.133.132h9.308a0.1158,0.1158,0,0,0,.132-0.132v-0.461c0-3.426,0-4.04-.044-4.742a1.0771,1.0771,0,0,0-.944-1.252,4.0987,4.0987,0,0,0-.746-0.067,0.1521,0.1521,0,0,1-.175-0.132c0-.131.109-0.174,0.351-0.174,0.987,0,2.37.065,2.48,0.065s1.493-.065,2.152-0.065c0.242,0,.351.043,0.351,0.174a0.1525,0.1525,0,0,1-.176.132,3.2961,3.2961,0,0,0-.549.067c-0.592.109-.768,0.482-0.812,1.252-0.044.702-.044,1.316-0.044,4.742v3.864Z" transform="translate(-66.862 -464.8952)" style="fill:#231f20"/><path d="M181.9882,531.0632c4.348,0,7.641,2.656,7.641,7.004a7.478,7.478,0,0,1-7.75,7.619,7.1581,7.1581,0,0,1-7.553-7.333,7.392,7.392,0,0,1,7.662-7.29m0.44,13.854c1.734,0,5.225-.922,5.225-6.323,0-4.48-2.722-6.829-5.774-6.829-3.227,0-5.555,2.02-5.555,6.083,0,4.346,2.613,7.069,6.104,7.069" transform="translate(-66.862 -464.8952)" style="fill:#231f20"/><path d="M197.4048,540.0217c0,1.8,0,3.271.087,4.039a0.8639,0.8639,0,0,0,.747.988,7.3509,7.3509,0,0,0,.878.087,0.1384,0.1384,0,0,1,.154.156c0,0.086-.087.153-0.307,0.153-1.054,0-2.284-.067-2.394-0.067-0.087,0-1.427.067-1.997,0.067-0.22,0-.307-0.044-0.307-0.153a0.1331,0.1331,0,0,1,.153-0.133,2.606,2.606,0,0,0,.57-0.087,0.9561,0.9561,0,0,0,.571-1.011c0.089-.768.089-2.239,0.089-4.039v-7.839l-2.788.044c-1.209.023-1.67,0.153-1.955,0.593a3.0978,3.0978,0,0,0-.308.593,0.1829,0.1829,0,0,1-.196.175,0.1461,0.1461,0,0,1-.133-0.153c0-.198.395-1.866,0.418-2.02a0.74,0.74,0,0,1,.197-0.352,6.7644,6.7644,0,0,0,.856.22c0.549,0.066,1.295.088,1.515,0.088h7.29a9.5834,9.5834,0,0,0,1.383-.088c0.285-.043.46-0.087,0.549-0.087,0.087,0,.087.109,0.087,0.219,0,0.57-.065,1.911-0.065,2.129a0.2105,0.2105,0,0,1-.176.242c-0.088,0-.132-0.067-0.154-0.329l-0.021-.198c-0.067-.571-0.484-0.988-2.328-1.032l-2.415-.044v7.839Z" transform="translate(-66.862 -464.8952)" style="fill:#231f20"/><path d="M206.0576,536.7278c0-2.897,0-3.425-.044-4.018a0.85,0.85,0,0,0-.791-1.032,6.21,6.21,0,0,0-.659-0.044,0.187,0.187,0,0,1-.153-0.153c0-.11.088-0.154,0.307-0.154,0.879,0,2.13.044,2.24,0.044,0.132,0,4.172.022,4.61,0a8.8554,8.8554,0,0,0,.879-0.111,1.3511,1.3511,0,0,1,.263-0.087c0.066,0,.088.087,0.088,0.176,0,0.132-.11.352-0.154,0.878-0.022.176-.065,1.01-0.109,1.23a0.2378,0.2378,0,0,1-.176.198c-0.11,0-.154-0.089-0.154-0.242a2.0447,2.0447,0,0,0-.11-0.659c-0.131-.307-0.329-0.439-1.383-0.571-0.329-.044-2.569-0.066-2.788-0.066-0.089,0-.11.066-0.11,0.198v5.071c0,0.133,0,.197.11,0.197,0.242,0,2.788,0,3.228-.043a1.4656,1.4656,0,0,0,.943-0.263,0.7582,0.7582,0,0,1,.286-0.242c0.066,0,.11.044,0.11,0.154a10.1611,10.1611,0,0,0-.154,1.032c-0.044.373-.088,1.076-0.088,1.207,0,0.154-.044.352-0.176,0.352a0.1431,0.1431,0,0,1-.131-0.176,1.6547,1.6547,0,0,0-.088-0.615c-0.066-.263-0.242-0.483-0.988-0.571-0.527-.065-2.591-0.087-2.92-0.087a0.115,0.115,0,0,0-.132.131v1.56c0,0.636-.022,2.81,0,3.183,0.044,1.252.395,1.493,2.306,1.493a6.4133,6.4133,0,0,0,1.931-.198,1.4137,1.4137,0,0,0,.879-1.295c0.044-.219.087-0.286,0.197-0.286s0.133,0.154.133,0.286a15.4571,15.4571,0,0,1-.265,1.8c-0.131.483-.329,0.483-1.076,0.483-1.448,0-2.568-.043-3.359-0.066-0.812-.044-1.316-0.044-1.602-0.044-0.044,0-.417,0-0.835.023-0.373.021-.812,0.044-1.119,0.044-0.197,0-.308-0.044-0.308-0.154a0.15,0.15,0,0,1,.154-0.155,5.2971,5.2971,0,0,0,.593-0.087c0.373-.066.417-0.439,0.505-0.988a38.0188,38.0188,0,0,0,.11-4.039v-3.294Z" transform="translate(-66.862 -464.8952)" style="fill:#231f20"/><path d="M219.3877,540.0647c0,2.745.043,3.864,0.395,4.193,0.308,0.309,1.053.44,2.569,0.44,1.01,0,1.866-.022,2.327-0.571a2.2874,2.2874,0,0,0,.461-1.054,0.2389,0.2389,0,0,1,.198-0.24c0.087,0,.131.086,0.131,0.284a11.7284,11.7284,0,0,1-.285,1.866c-0.132.439-.198,0.505-1.23,0.505-1.382,0-2.459-.023-3.358-0.066-0.879-.021-1.538-0.044-2.108-0.044-0.089,0-.418,0-0.791.023-0.395.021-.812,0.044-1.12,0.044-0.197,0-.308-0.044-0.308-0.153a0.151,0.151,0,0,1,.154-0.156,2.749,2.749,0,0,0,.593-0.087,0.9448,0.9448,0,0,0,.505-0.988,38.0084,38.0084,0,0,0,.11-4.039v-3.294c0-2.897,0-3.425-.044-4.017a0.85,0.85,0,0,0-.791-1.033,6.1723,6.1723,0,0,0-.658-0.044,0.1869,0.1869,0,0,1-.154-0.153c0-.11.088-0.154,0.307-0.154,0.879,0,2.086.044,2.197,0.044,0.087,0,1.536-.044,2.129-0.044,0.198,0,.308.044,0.308,0.154a0.1658,0.1658,0,0,1-.154.131c-0.133,0-.418.022-0.637,0.044-0.571.109-.681,0.395-0.724,1.055-0.022.592-.022,1.12-0.022,4.017v3.337Z" transform="translate(-66.862 -464.8952)" style="fill:#231f20"/><path d="M259.2217,543.38a8.4083,8.4083,0,0,1-2.657-6.499,8.7622,8.7622,0,0,1,2.459-5.993c1.318-1.318,3.315-2.35,6.697-2.35a18.894,18.894,0,0,1,3.184.263,19.2345,19.2345,0,0,0,2.239.331c0.242,0.02.285,0.109,0.285,0.24,0,0.176-.065.44-0.11,1.23-0.044.724-.044,1.932-0.066,2.261s-0.065.462-.198,0.462c-0.153,0-.174-0.155-0.174-0.462a3.0354,3.0354,0,0,0-.923-2.239,7.316,7.316,0,0,0-4.391-1.252c-2.921,0-4.282.857-5.05,1.604-1.602,1.536-1.976,3.49-1.976,5.729a7.9284,7.9284,0,0,0,7.927,8.036c1.646,0,2.942-.197,3.819-1.097a4.16,4.16,0,0,0,.812-1.845c0.045-.241.089-0.329,0.22-0.329,0.11,0,.154.153,0.154,0.329a22.6867,22.6867,0,0,1-.483,2.81,0.7483,0.7483,0,0,1-.571.637,12.69,12.69,0,0,1-3.951.505c-3.294,0-5.512-.811-7.246-2.371" transform="translate(-66.862 -464.8952)" style="fill:#231f20"/><path d="M278.6556,531.7009c0.242-.616.329-0.725,0.461-0.725a0.9216,0.9216,0,0,1,.462.68c0.351,0.791,3.446,8.497,4.632,11.33,0.702,1.668,1.229,1.91,1.647,2.041a2.6718,2.6718,0,0,0,.768.109,0.2087,0.2087,0,0,1,.242.155,0.4174,0.4174,0,0,1-.439.154c-0.286,0-1.713,0-3.053-.044a0.92,0.92,0,0,1-.68-0.132c0-.088.044-0.088,0.132-0.133a0.35,0.35,0,0,0,.175-0.505l-1.734-4.28a0.1515,0.1515,0,0,0-.176-0.11h-4.457a0.2033,0.2033,0,0,0-.197.153l-1.098,2.986a3.8572,3.8572,0,0,0-.286,1.251,0.5552,0.5552,0,0,0,.659.505h0.176c0.154,0,.198.066,0.198,0.155,0,0.11-.111.154-0.286,0.154-0.461,0-1.515-.067-1.735-0.067-0.197,0-1.163.067-1.954,0.067-0.241,0-.373-0.044-0.373-0.154a0.17,0.17,0,0,1,.175-0.155,5.4035,5.4035,0,0,0,.572-0.043c0.878-.11,1.251-0.768,1.625-1.713Zm2.152,7.772c0.087,0,.087-0.045.065-0.133l-1.91-5.116q-0.1635-.426-0.329,0l-1.801,5.116c-0.022.088,0,.133,0.067,0.133h3.908Z" transform="translate(-66.862 -464.8952)" style="fill:#231f20"/><path d="M287.4624,545.1809c-0.264-.132-0.286-0.198-0.286-0.703,0-.922.088-1.668,0.11-1.977,0-.197.044-0.306,0.154-0.306a0.1772,0.1772,0,0,1,.175.219,2.7539,2.7539,0,0,0,.067.681c0.307,1.361,1.756,1.845,3.051,1.845,1.91,0,2.898-1.076,2.898-2.482,0-1.339-.724-1.975-2.437-3.25l-0.878-.658c-2.086-1.558-2.767-2.701-2.767-3.995,0-2.196,1.734-3.514,4.282-3.514a9.41,9.41,0,0,1,1.998.219,2.4747,2.4747,0,0,0,.681.089c0.153,0,.198.021,0.198,0.132a19.514,19.514,0,0,0-.089,1.975c0,0.286-.022.417-0.154,0.417s-0.153-.088-0.175-0.241a3.48,3.48,0,0,0-.285-0.922c-0.133-.22-0.769-0.923-2.503-0.923-1.406,0-2.57.703-2.57,2.021,0,1.185.593,1.866,2.503,3.161l0.549,0.374c2.35,1.603,3.162,2.898,3.162,4.5a3.6353,3.6353,0,0,1-1.801,3.184,5.9179,5.9179,0,0,1-3.073.659,7.1,7.1,0,0,1-2.81-.505" transform="translate(-66.862 -464.8952)" style="fill:#231f20"/><path d="M301.3838,540.0217c0,1.8,0,3.271.088,4.039a0.8486,0.8486,0,0,0,.702.988,7.8241,7.8241,0,0,0,.879.087,0.15,0.15,0,0,1,.153.156c0,0.086-.088.153-0.307,0.153-1.076,0-2.327-.067-2.414-0.067-0.111,0-1.319.067-1.911,0.067-0.198,0-.308-0.044-0.308-0.153a0.15,0.15,0,0,1,.154-0.156,2.7585,2.7585,0,0,0,.593-0.087,0.9179,0.9179,0,0,0,.505-0.988c0.088-.768.11-2.239,0.11-4.039v-3.294c0-2.897,0-3.425-.044-4.018a0.8668,0.8668,0,0,0-.616-1.009,3.3376,3.3376,0,0,0-.592-0.067,0.1642,0.1642,0,0,1-.153-0.153c0-.11.087-0.154,0.307-0.154,0.636,0,1.844.044,1.955,0.044,0.087,0,1.338-.044,1.931-0.044,0.219,0,.308.044,0.308,0.154a0.1882,0.1882,0,0,1-.154.153,2.1525,2.1525,0,0,0-.483.044c-0.527.11-.638,0.373-0.681,1.032-0.022.593-.022,1.121-0.022,4.018v3.294Z" transform="translate(-66.862 -464.8952)" style="fill:#231f20"/><path d="M308.0166,542.8967c0.044,1.537.22,1.999,0.747,2.13a4.5558,4.5558,0,0,0,.965.109,0.1509,0.1509,0,0,1,.154.156c0,0.109-.132.153-0.351,0.153-1.097,0-1.867-.067-2.042-0.067s-0.988.067-1.866,0.067c-0.198,0-.308-0.023-0.308-0.153a0.1512,0.1512,0,0,1,.153-0.156,3.02,3.02,0,0,0,.791-0.109c0.484-.131.55-0.636,0.55-2.327v-10.693c0-.747.109-0.944,0.263-0.944a1.759,1.759,0,0,1,.747.571c0.306,0.308,3.117,3.293,6.102,6.367,1.911,1.977,3.975,4.194,4.568,4.809l-0.198-9.353c-0.021-1.207-.131-1.625-0.724-1.735a6.1741,6.1741,0,0,0-.945-0.088,0.1523,0.1523,0,0,1-.153-0.175c0-.11.153-0.132,0.373-0.132,0.878,0,1.801.044,2.02,0.044s0.856-.044,1.647-0.044c0.197,0,.351.022,0.351,0.132a0.2178,0.2178,0,0,1-.22.175,2.1815,2.1815,0,0,0-.46.044c-0.638.132-.681,0.505-0.681,1.625l-0.045,10.934c0,1.228-.021,1.34-0.153,1.34-0.197,0-.395-0.155-1.472-1.143-0.197-.176-2.985-2.92-5.027-5.05-2.239-2.349-4.413-4.632-5.006-5.291Z" transform="translate(-66.862 -464.8952)" style="fill:#231f20"/><path d="M330.13,531.0632c4.346,0,7.639,2.656,7.639,7.004a7.478,7.478,0,0,1-7.75,7.619,7.1581,7.1581,0,0,1-7.553-7.333,7.3926,7.3926,0,0,1,7.664-7.29m0.438,13.854c1.734,0,5.225-.922,5.225-6.323,0-4.48-2.722-6.829-5.774-6.829-3.228,0-5.555,2.02-5.555,6.083,0,4.346,2.613,7.069,6.104,7.069" transform="translate(-66.862 -464.8952)" style="fill:#231f20"/></svg>